# xmcd
#
# Track frame offsets:
#	150
#	12122
#	25110
#	38870
#	58185
#	70247
#	85592
#	96250
#	109685
#	128632
#
# Disc length: 1880 seconds
#
# Revision: 1
# Processed by: cddbd v1.5.2PL0 Copyright (c) Steve Scherf et al.
# Submitted via: EZCDAudioConverter 6.0.5.1
#
DISCID=7707560a
DTITLE=Tammy Wynette - Winners
DYEAR=1993
DGENRE=Country
TTITLE0=’Til I Get It Right
TTITLE1=My Man (Understands)
TTITLE2=’Til I Can Make It on My Own
TTITLE3=Ode to Billie Joe
TTITLE4=Stand by Your Man
TTITLE5=You Needed Me
TTITLE6=They Call It Making Love
TTITLE7=Almost Persuaded
TTITLE8=Honey (I Miss You)
TTITLE9=Cry
EXTD=
EXTT0=
EXTT1=
EXTT2=
EXTT3=
EXTT4=
EXTT5=
EXTT6=
EXTT7=
EXTT8=
EXTT9=
PLAYORDER=
